<svg width="50" height="50" viewBox="0 0 50 50" fill="none" xmlns="http://www.w3.org/2000/svg">
<circle cx="25" cy="25" r="25" fill="#C5AE86"/>
<path fill-rule="evenodd" clip-rule="evenodd" d="M24.2929 15.2929C24.4804 15.1054 24.7348 15 25 15C25.2652 15 25.5196 15.1054 25.7071 15.2929C25.8946 15.4804 26 15.7348 26 16V16.09L26 16.094C26.0021 16.6108 26.1552 17.1157 26.4406 17.5466C26.7249 17.976 27.1282 18.3132 27.6011 18.517C28.0843 18.7291 28.6198 18.7921 29.139 18.698C29.66 18.6035 30.1407 18.3551 30.5193 17.9849L30.5193 17.9849L30.5271 17.9771L30.5871 17.9171L30.5875 17.9167C30.6804 17.8237 30.7907 17.75 30.9121 17.6997C31.0335 17.6493 31.1636 17.6234 31.295 17.6234C31.4264 17.6234 31.5565 17.6493 31.6779 17.6997C31.7993 17.75 31.9096 17.8237 32.0025 17.9167L32.0033 17.9175C32.0963 18.0104 32.17 18.1207 32.2203 18.2421C32.2707 18.3635 32.2966 18.4936 32.2966 18.625C32.2966 18.7564 32.2707 18.8865 32.2203 19.0079C32.17 19.1293 32.0963 19.2396 32.0033 19.3325L32.0029 19.3329L31.9429 19.3929L31.9428 19.3929L31.9351 19.4007C31.5649 19.7793 31.3165 20.26 31.222 20.781C31.14 21.2333 31.1773 21.698 31.3284 22.1296C31.3403 22.2204 31.3646 22.3094 31.4009 22.3939C31.6045 22.869 31.9425 23.2741 32.3734 23.5594C32.8043 23.8448 33.3092 23.9979 33.826 24L33.83 24H34C34.2652 24 34.5196 24.1054 34.7071 24.2929C34.8946 24.4804 35 24.7348 35 25C35 25.2652 34.8946 25.5196 34.7071 25.7071C34.5196 25.8946 34.2652 26 34 26L33.91 26L33.906 26C33.3892 26.0021 32.8843 26.1552 32.4534 26.4406C32.024 26.725 31.6867 27.1283 31.4829 27.6012C31.2709 28.0843 31.2079 28.6198 31.302 29.139C31.3965 29.66 31.6449 30.1407 32.0151 30.5193L32.0151 30.5193L32.0229 30.5271L32.0829 30.5871L32.0833 30.5875C32.1763 30.6804 32.25 30.7907 32.3003 30.9121C32.3507 31.0335 32.3766 31.1636 32.3766 31.295C32.3766 31.4264 32.3507 31.5565 32.3003 31.6779C32.25 31.7993 32.1763 31.9096 32.0833 32.0025L32.0825 32.0033C31.9896 32.0963 31.8793 32.17 31.7579 32.2203C31.6365 32.2707 31.5064 32.2966 31.375 32.2966C31.2436 32.2966 31.1135 32.2707 30.9921 32.2203C30.8707 32.17 30.7604 32.0963 30.6675 32.0033L30.6671 32.0029L30.6071 31.9429L30.6071 31.9429L30.5993 31.9351C30.2207 31.5649 29.74 31.3165 29.219 31.222C28.6998 31.1279 28.1643 31.1909 27.6812 31.4029C27.2083 31.6067 26.805 31.944 26.5206 32.3734C26.2352 32.8043 26.0821 33.3092 26.08 33.826L26.08 33.83V34C26.08 34.2652 25.9746 34.5196 25.7871 34.7071C25.5996 34.8946 25.3452 35 25.08 35C24.8148 35 24.5604 34.8946 24.3729 34.7071C24.1854 34.5196 24.08 34.2652 24.08 34V33.91L24.0797 33.8866C24.0673 33.355 23.8952 32.8395 23.5859 32.407C23.2827 31.983 22.8613 31.6581 22.3748 31.4725C21.898 31.2689 21.3716 31.2095 20.861 31.302C20.34 31.3965 19.8593 31.6449 19.4807 32.0151L19.4807 32.0151L19.4729 32.0229L19.4129 32.0829L19.4125 32.0833C19.3196 32.1763 19.2093 32.25 19.0879 32.3003C18.9665 32.3507 18.8364 32.3766 18.705 32.3766C18.5736 32.3766 18.4435 32.3507 18.3221 32.3003C18.2007 32.25 18.0904 32.1763 17.9975 32.0833L17.9967 32.0825C17.9037 31.9896 17.83 31.8793 17.7797 31.7579C17.7293 31.6365 17.7034 31.5064 17.7034 31.375C17.7034 31.2436 17.7293 31.1135 17.7797 30.9921C17.83 30.8707 17.9037 30.7604 17.9967 30.6675L17.9971 30.6671L18.0571 30.6071L18.0571 30.6072L18.0649 30.5993C18.4351 30.2207 18.6835 29.74 18.778 29.219C18.8721 28.6998 18.8091 28.1643 18.597 27.6811C18.3932 27.2082 18.056 26.8049 17.6266 26.5206C17.1957 26.2352 16.6908 26.0821 16.174 26.08V26.08H16.17H16C15.7348 26.08 15.4804 25.9746 15.2929 25.7871C15.1054 25.5996 15 25.3452 15 25.08C15 24.8148 15.1054 24.5604 15.2929 24.3729C15.4804 24.1854 15.7348 24.08 16 24.08H16.09L16.1134 24.0797C16.645 24.0673 17.1605 23.8952 17.593 23.5859C18.017 23.2827 18.3419 22.8613 18.5275 22.3748C18.7311 21.898 18.7905 21.3716 18.698 20.861C18.6035 20.34 18.3551 19.8593 17.9849 19.4807L17.9849 19.4807L17.9771 19.4729L17.9171 19.4129L17.9167 19.4125C17.8237 19.3196 17.75 19.2093 17.6997 19.0879C17.6493 18.9665 17.6234 18.8364 17.6234 18.705C17.6234 18.5736 17.6493 18.4435 17.6997 18.3221C17.75 18.2007 17.8237 18.0904 17.9167 17.9975L17.9175 17.9967C18.0104 17.9037 18.1207 17.83 18.2421 17.7797C18.3635 17.7293 18.4936 17.7034 18.625 17.7034C18.7564 17.7034 18.8865 17.7293 19.0079 17.7797C19.1293 17.83 19.2396 17.9037 19.3325 17.9967L19.3329 17.9971L19.3929 18.0571L19.3928 18.0571L19.4007 18.0649C19.7793 18.4351 20.26 18.6835 20.781 18.778C21.2333 18.86 21.698 18.8227 22.1296 18.6716C22.2204 18.6597 22.3094 18.6354 22.3939 18.5991C22.869 18.3956 23.2741 18.0575 23.5594 17.6266C23.8448 17.1957 23.9979 16.6908 24 16.174H24V16.17V16C24 15.7348 24.1054 15.4804 24.2929 15.2929ZM25 13C24.2044 13 23.4413 13.3161 22.8787 13.8787C22.3161 14.4413 22 15.2043 22 16V16.1675C21.9992 16.2937 21.9617 16.417 21.8919 16.5223C21.845 16.5932 21.7848 16.6539 21.7151 16.7012C21.6469 16.7155 21.5803 16.7369 21.5162 16.7651C21.3974 16.8176 21.2656 16.8332 21.1378 16.81C21.0114 16.7871 20.8947 16.7273 20.8023 16.6381L20.7475 16.5833C20.4689 16.3044 20.138 16.0831 19.7738 15.9321C19.4096 15.7811 19.0192 15.7034 18.625 15.7034C18.2308 15.7034 17.8404 15.7811 17.4762 15.9321C17.1122 16.083 16.7814 16.3041 16.5029 16.5829C16.2241 16.8614 16.003 17.1922 15.8521 17.5562C15.7011 17.9204 15.6234 18.3108 15.6234 18.705C15.6234 19.0992 15.7011 19.4896 15.8521 19.8538C16.0031 20.218 16.2244 20.5489 16.5033 20.8275L16.5581 20.8823C16.6473 20.9747 16.7071 21.0914 16.73 21.2178C16.7532 21.3456 16.7376 21.4774 16.6851 21.5962C16.6766 21.6155 16.6687 21.635 16.6615 21.6548C16.6164 21.7772 16.5356 21.8833 16.4296 21.9591C16.3259 22.0333 16.2028 22.0753 16.0756 22.08H16C15.2043 22.08 14.4413 22.3961 13.8787 22.9587C13.3161 23.5213 13 24.2844 13 25.08C13 25.8756 13.3161 26.6387 13.8787 27.2013C14.4413 27.7639 15.2043 28.08 16 28.08H16.1675C16.2937 28.0808 16.417 28.1183 16.5223 28.1881C16.628 28.258 16.7109 28.3574 16.7609 28.4739L16.7608 28.474L16.7651 28.4838C16.8176 28.6026 16.8332 28.7344 16.81 28.8622C16.7871 28.9886 16.7273 29.1053 16.6381 29.1977L16.5833 29.2525C16.3044 29.5311 16.0831 29.862 15.9321 30.2262C15.7811 30.5904 15.7034 30.9808 15.7034 31.375C15.7034 31.7692 15.7811 32.1596 15.9321 32.5238C16.0831 32.888 16.3044 33.2189 16.5833 33.4975C16.8617 33.7761 17.1923 33.9971 17.5562 34.1479C17.9204 34.2989 18.3108 34.3766 18.705 34.3766C19.0992 34.3766 19.4896 34.2989 19.8538 34.1479C20.2178 33.997 20.5486 33.7759 20.8271 33.4971L20.8275 33.4967L20.8823 33.4419C20.9747 33.3527 21.0914 33.2929 21.2178 33.27C21.3456 33.2468 21.4774 33.2624 21.5962 33.3149C21.6155 33.3234 21.635 33.3313 21.6548 33.3385C21.7772 33.3836 21.8833 33.4644 21.9591 33.5704C22.0333 33.6741 22.0753 33.7972 22.08 33.9244V34C22.08 34.7957 22.3961 35.5587 22.9587 36.1213C23.5213 36.6839 24.2843 37 25.08 37C25.8757 37 26.6387 36.6839 27.2013 36.1213C27.7639 35.5587 28.08 34.7957 28.08 34V33.8325C28.0808 33.7063 28.1183 33.583 28.1881 33.4777C28.258 33.372 28.3574 33.2891 28.4739 33.2391L28.474 33.2392L28.4838 33.2349C28.6026 33.1824 28.7344 33.1668 28.8622 33.19C28.9886 33.2129 29.1053 33.2727 29.1977 33.3619L29.2525 33.4167L29.2529 33.4171C29.5314 33.6959 29.8622 33.917 30.2262 34.0679C30.5904 34.2189 30.9808 34.2966 31.375 34.2966C31.7692 34.2966 32.1596 34.2189 32.5238 34.0679C32.8878 33.917 33.2186 33.6959 33.4971 33.4171C33.497 33.4172 33.4968 33.4174 33.4967 33.4175L32.79 32.71L33.4975 33.4167C33.4974 33.4168 33.4972 33.417 33.4971 33.4171C33.7759 33.1386 33.997 32.8078 34.1479 32.4438C34.2989 32.0796 34.3766 31.6892 34.3766 31.295C34.3766 30.9008 34.2989 30.5104 34.1479 30.1462C33.997 29.7822 33.7758 29.4514 33.4971 29.1729L33.4967 29.1725L33.4419 29.1177C33.3527 29.0253 33.2929 28.9086 33.27 28.7822C33.2468 28.6544 33.2624 28.5226 33.3149 28.4038L33.3149 28.4038L33.3191 28.3939C33.3691 28.2774 33.452 28.178 33.5577 28.1081C33.663 28.0383 33.7863 28.0008 33.9125 28H34C34.7957 28 35.5587 27.6839 36.1213 27.1213C36.6839 26.5587 37 25.7957 37 25C37 24.2043 36.6839 23.4413 36.1213 22.8787C35.5587 22.3161 34.7957 22 34 22H33.8325C33.7063 21.9992 33.583 21.9617 33.4777 21.8919C33.4068 21.845 33.3461 21.7848 33.2988 21.7151C33.2845 21.6469 33.2631 21.5803 33.2349 21.5162C33.1824 21.3974 33.1668 21.2656 33.19 21.1378C33.2129 21.0114 33.2727 20.8947 33.3619 20.8023L33.4167 20.7475L33.4171 20.7471C33.6959 20.4686 33.917 20.1378 34.0679 19.7738C34.2189 19.4096 34.2966 19.0192 34.2966 18.625C34.2966 18.2308 34.2189 17.8404 34.0679 17.4762C33.9171 17.1123 33.6961 16.7817 33.4175 16.5033C33.1389 16.2244 32.808 16.0031 32.4438 15.8521C32.0796 15.7011 31.6892 15.6234 31.295 15.6234C30.9008 15.6234 30.5104 15.7011 30.1462 15.8521C29.782 16.0031 29.4511 16.2244 29.1725 16.5033L29.1177 16.5581C29.0253 16.6473 28.9086 16.7071 28.7822 16.73C28.6544 16.7532 28.5226 16.7376 28.4038 16.6851L28.4038 16.6851L28.3939 16.6809C28.2774 16.6309 28.178 16.548 28.1081 16.4423C28.0383 16.337 28.0008 16.2137 28 16.0875V16C28 15.2043 27.6839 14.4413 27.1213 13.8787C26.5587 13.3161 25.7956 13 25 13ZM23 25C23 23.8954 23.8954 23 25 23C26.1046 23 27 23.8954 27 25C27 26.1046 26.1046 27 25 27C23.8954 27 23 26.1046 23 25ZM25 21C22.7909 21 21 22.7909 21 25C21 27.2091 22.7909 29 25 29C27.2091 29 29 27.2091 29 25C29 22.7909 27.2091 21 25 21Z" fill="white"/>
</svg>
