<svg width="30" height="32" viewBox="0 0 30 32" fill="none" xmlns="http://www.w3.org/2000/svg">
<path fill-rule="evenodd" clip-rule="evenodd" d="M12.3078 3.04081C14.8766 2.43505 17.5648 2.71141 19.975 3.83227C20.6579 4.14985 21.4689 3.85371 21.7865 3.17083C22.104 2.48795 21.8079 1.67692 21.125 1.35934C18.1632 -0.0181119 14.8496 -0.360664 11.6818 0.386349C8.51478 1.13319 5.67453 2.92611 3.57898 5.48512C1.48415 8.04326 0.243413 11.2318 0.03227 14.5739C-0.178867 17.9159 0.650037 21.244 2.40228 24.0628C4.155 26.8825 6.74118 29.0462 9.78366 30.2194C12.8271 31.393 16.1555 31.5087 19.2685 30.548C22.3806 29.5876 25.1008 27.6064 27.0304 24.9123C28.9595 22.219 29.9982 18.9544 30 15.6052V15.6045V14.2951C30 13.542 29.3895 12.9315 28.6364 12.9315C27.8832 12.9315 27.2727 13.542 27.2727 14.2951V15.6037C27.2712 18.393 26.4055 21.1011 24.8132 23.3242C23.2215 25.5465 20.9919 27.162 18.4643 27.942C15.9375 28.7217 13.2381 28.6284 10.7649 27.6747C8.29067 26.7207 6.16677 24.9529 4.71852 22.623C3.26977 20.2924 2.57829 17.5289 2.75412 14.7459C2.92993 11.9629 3.96277 9.32109 5.68904 7.21302C7.41461 5.10583 9.73826 3.64675 12.3078 3.04081ZM29.6215 5.16137C30.1422 4.6173 30.1233 3.7541 29.5793 3.23336C29.0352 2.71261 28.172 2.73151 27.6512 3.27557L14.9995 16.4938L11.8937 13.2522C11.3727 12.7084 10.5095 12.6899 9.96571 13.211C9.4219 13.732 9.40343 14.5952 9.92445 15.139L14.0154 19.4088C14.2726 19.6773 14.6284 19.8291 15.0003 19.829C15.3722 19.829 15.728 19.677 15.9851 19.4083L29.6215 5.16137Z" fill="#9A7E4E"/>
</svg>
