<svg width="50" height="50" viewBox="0 0 50 50" fill="none" xmlns="http://www.w3.org/2000/svg">
<circle cx="25" cy="25" r="25" fill="#C5AE86"/>
<path fill-rule="evenodd" clip-rule="evenodd" d="M30.2071 17.3284C30.4174 17.1181 30.7026 17 31 17C31.1473 17 31.2931 17.029 31.4291 17.0854C31.5652 17.1417 31.6888 17.2243 31.7929 17.3284C31.897 17.4326 31.9796 17.5562 32.036 17.6922C32.0923 17.8283 32.1213 17.9741 32.1213 18.1213C32.1213 18.2686 32.0923 18.4144 32.036 18.5504C31.9796 18.6865 31.897 18.8101 31.7929 18.9142L19.4888 31.2184L17.3744 31.747L17.903 29.6326L30.2071 17.3284ZM31 15C30.1722 15 29.3783 15.3289 28.7929 15.9142L16.2929 28.4142C16.1648 28.5424 16.0738 28.703 16.0299 28.8788L15.0299 32.8788C14.9447 33.2196 15.0445 33.58 15.2929 33.8284C15.5413 34.0768 15.9018 34.1767 16.2426 34.0915L20.2426 33.0915C20.4184 33.0475 20.579 32.9566 20.7071 32.8284L33.2071 20.3284C33.497 20.0386 33.7269 19.6945 33.8837 19.3158C34.0406 18.9371 34.1213 18.5312 34.1213 18.1213C34.1213 17.7114 34.0406 17.3055 33.8837 16.9268C33.7269 16.5481 33.497 16.2041 33.2071 15.9142C32.9173 15.6244 32.5732 15.3945 32.1945 15.2376C31.8158 15.0807 31.4099 15 31 15ZM25 32.1213C24.4477 32.1213 24 32.5691 24 33.1213C24 33.6736 24.4477 34.1213 25 34.1213H34C34.5523 34.1213 35 33.6736 35 33.1213C35 32.5691 34.5523 32.1213 34 32.1213H25Z" fill="white"/>
</svg>
