<svg width="41" height="41" viewBox="0 0 41 41" fill="none" xmlns="http://www.w3.org/2000/svg">
<path fill-rule="evenodd" clip-rule="evenodd" d="M20.5 39C30.7173 39 39 30.7173 39 20.5C39 10.2827 30.7173 2 20.5 2C10.2827 2 2 10.2827 2 20.5C2 30.7173 10.2827 39 20.5 39ZM20.5 40C31.2696 40 40 31.2696 40 20.5C40 9.73045 31.2696 1 20.5 1C9.73045 1 1 9.73045 1 20.5C1 31.2696 9.73045 40 20.5 40ZM13 28L12.2689 27.3177L19.3161 19.7672L13 13L13.7311 12.3177L20 19.0344L26.2689 12.3177L27 13L20.6839 19.7672L27.7311 27.3177L27 28L20 20.5L13 28Z" fill="#C42525"/>
<path d="M12.2689 27.3177L11.9034 26.9765L11.5623 27.3421L11.9278 27.6832L12.2689 27.3177ZM13 28L12.6588 28.3655L13.0244 28.7067L13.3655 28.3412L13 28ZM19.3161 19.7672L19.6816 20.1084L20 19.7672L19.6816 19.426L19.3161 19.7672ZM13 13L12.6588 12.6345L12.2933 12.9756L12.6345 13.3412L13 13ZM13.7311 12.3177L14.0966 11.9765L13.7554 11.611L13.3899 11.9522L13.7311 12.3177ZM20 19.0344L19.6345 19.3756L20 19.7672L20.3655 19.3756L20 19.0344ZM26.2689 12.3177L26.6101 11.9522L26.2446 11.611L25.9034 11.9765L26.2689 12.3177ZM27 13L27.3655 13.3412L27.7067 12.9756L27.3412 12.6345L27 13ZM20.6839 19.7672L20.3184 19.426L20 19.7672L20.3184 20.1084L20.6839 19.7672ZM27.7311 27.3177L28.0722 27.6832L28.4377 27.3421L28.0966 26.9765L27.7311 27.3177ZM27 28L26.6345 28.3412L26.9756 28.7067L27.3412 28.3655L27 28ZM20 20.5L20.3655 20.1588L20 19.7672L19.6345 20.1588L20 20.5ZM38.5 20.5C38.5 30.4411 30.4411 38.5 20.5 38.5V39.5C30.9934 39.5 39.5 30.9934 39.5 20.5H38.5ZM20.5 2.5C30.4411 2.5 38.5 10.5589 38.5 20.5H39.5C39.5 10.0066 30.9934 1.5 20.5 1.5V2.5ZM2.5 20.5C2.5 10.5589 10.5589 2.5 20.5 2.5V1.5C10.0066 1.5 1.5 10.0066 1.5 20.5H2.5ZM20.5 38.5C10.5589 38.5 2.5 30.4411 2.5 20.5H1.5C1.5 30.9934 10.0066 39.5 20.5 39.5V38.5ZM39.5 20.5C39.5 30.9934 30.9934 39.5 20.5 39.5V40.5C31.5457 40.5 40.5 31.5457 40.5 20.5H39.5ZM20.5 1.5C30.9934 1.5 39.5 10.0066 39.5 20.5H40.5C40.5 9.45431 31.5457 0.5 20.5 0.5V1.5ZM1.5 20.5C1.5 10.0066 10.0066 1.5 20.5 1.5V0.5C9.45431 0.5 0.5 9.45431 0.5 20.5H1.5ZM20.5 39.5C10.0066 39.5 1.5 30.9934 1.5 20.5H0.5C0.5 31.5457 9.45431 40.5 20.5 40.5V39.5ZM11.9278 27.6832L12.6588 28.3655L13.3412 27.6345L12.6101 26.9522L11.9278 27.6832ZM18.9505 19.426L11.9034 26.9765L12.6345 27.6588L19.6816 20.1084L18.9505 19.426ZM12.6345 13.3412L18.9505 20.1084L19.6816 19.426L13.3655 12.6588L12.6345 13.3412ZM13.3899 11.9522L12.6588 12.6345L13.3412 13.3655L14.0722 12.6832L13.3899 11.9522ZM20.3655 18.6932L14.0966 11.9765L13.3655 12.6588L19.6345 19.3756L20.3655 18.6932ZM25.9034 11.9765L19.6345 18.6932L20.3655 19.3756L26.6345 12.6588L25.9034 11.9765ZM27.3412 12.6345L26.6101 11.9522L25.9278 12.6832L26.6588 13.3655L27.3412 12.6345ZM21.0495 20.1084L27.3655 13.3412L26.6345 12.6588L20.3184 19.426L21.0495 20.1084ZM28.0966 26.9765L21.0495 19.426L20.3184 20.1084L27.3655 27.6588L28.0966 26.9765ZM27.3412 28.3655L28.0722 27.6832L27.3899 26.9522L26.6588 27.6345L27.3412 28.3655ZM19.6345 20.8412L26.6345 28.3412L27.3655 27.6588L20.3655 20.1588L19.6345 20.8412ZM13.3655 28.3412L20.3655 20.8412L19.6345 20.1588L12.6345 27.6588L13.3655 28.3412Z" fill="#C42525"/>
</svg>
