<svg width="19" height="19" viewBox="0 0 19 19" fill="none" xmlns="http://www.w3.org/2000/svg">
<path fill-rule="evenodd" clip-rule="evenodd" d="M10.3397 0.347811C9.87594 -0.115937 9.12406 -0.115937 8.66031 0.347811C8.19656 0.811558 8.19656 1.56344 8.66031 2.02719L14.9456 8.3125H1.1875C0.531662 8.3125 0 8.84416 0 9.5C0 10.1558 0.531662 10.6875 1.1875 10.6875H14.9456L8.66031 16.9728C8.19656 17.4366 8.19656 18.1884 8.66031 18.6522C9.12406 19.1159 9.87594 19.1159 10.3397 18.6522L18.6513 10.3406C18.6542 10.3377 18.6571 10.3348 18.6599 10.3319C18.8703 10.1177 19 9.82398 19 9.5C19 9.33899 18.968 9.18546 18.9099 9.04544C18.8519 8.90538 18.766 8.77416 18.6522 8.66031L10.3397 0.347811Z" fill="black"/>
</svg>
