<svg width="34" height="32" viewBox="0 0 34 32" fill="none" xmlns="http://www.w3.org/2000/svg">
<path fill-rule="evenodd" clip-rule="evenodd" d="M3.66863 3.66863C3.96869 3.36857 4.37565 3.2 4.8 3.2H22.4C23.2837 3.2 24 2.48366 24 1.6C24 0.716344 23.2837 0 22.4 0H4.8C3.52696 0 2.30606 0.505713 1.40589 1.40589C0.505713 2.30606 0 3.52696 0 4.8V27.2C0 28.473 0.505713 29.6939 1.40589 30.5941C2.30606 31.4943 3.52696 32 4.8 32H27.2C28.473 32 29.6939 31.4943 30.5941 30.5941C31.4943 29.6939 32 28.473 32 27.2V16C32 15.1163 31.2837 14.4 30.4 14.4C29.5163 14.4 28.8 15.1163 28.8 16V27.2C28.8 27.6243 28.6314 28.0313 28.3314 28.3314C28.0313 28.6314 27.6243 28.8 27.2 28.8H4.8C4.37565 28.8 3.96869 28.6314 3.66863 28.3314C3.36857 28.0313 3.2 27.6243 3.2 27.2V4.8C3.2 4.37565 3.36857 3.96869 3.66863 3.66863ZM33.1314 4.33137C33.7562 3.70653 33.7562 2.69347 33.1314 2.06863C32.5065 1.44379 31.4935 1.44379 30.8686 2.06863L16 16.9373L12.3314 13.2686C11.7065 12.6438 10.6935 12.6438 10.0686 13.2686C9.44379 13.8935 9.44379 14.9065 10.0686 15.5314L14.8686 20.3314C15.1687 20.6314 15.5757 20.8 16 20.8C16.4243 20.8 16.8313 20.6314 17.1314 20.3314L33.1314 4.33137Z" fill="#CBB692"/>
</svg>
