<svg width="38" height="32" viewBox="0 0 38 32" fill="none" xmlns="http://www.w3.org/2000/svg">
<path d="M35.9993 3.54175V12.8145H26.7266" stroke="#9A7E4E" stroke-width="3.09091" stroke-linecap="round" stroke-linejoin="round"/>
<path d="M2 28.2691V18.9963H11.2727" stroke="#9A7E4E" stroke-width="3.09091" stroke-linecap="round" stroke-linejoin="round"/>
<path d="M5.87909 11.2691C6.6629 9.0541 7.99502 7.07378 9.75118 5.5129C11.5073 3.95201 13.6303 2.86144 15.9219 2.34292C18.2135 1.82441 20.5992 1.89487 22.8562 2.54772C25.1132 3.20057 27.1681 4.41454 28.8291 6.07634L36 12.8145M2 18.9963L9.17091 25.7345C10.8319 27.3963 12.8868 28.6103 15.1438 29.2632C17.4008 29.916 19.7865 29.9865 22.0781 29.4679C24.3697 28.9494 26.4927 27.8589 28.2488 26.298C30.005 24.7371 31.3371 22.7568 32.1209 20.5418" stroke="#9A7E4E" stroke-width="3.09091" stroke-linecap="round" stroke-linejoin="round"/>
</svg>
