<svg width="50" height="50" viewBox="0 0 50 50" fill="none" xmlns="http://www.w3.org/2000/svg">
<circle cx="25" cy="25" r="25" fill="#C5AE86"/>
<path fill-rule="evenodd" clip-rule="evenodd" d="M31 16C31.5523 16 32 16.4477 32 17V33C32 33.5523 31.5523 34 31 34C30.4477 34 30 33.5523 30 33V17C30 16.4477 30.4477 16 31 16ZM25 22C25.5523 22 26 22.4477 26 23V33C26 33.5523 25.5523 34 25 34C24.4477 34 24 33.5523 24 33V23C24 22.4477 24.4477 22 25 22ZM20 29C20 28.4477 19.5523 28 19 28C18.4477 28 18 28.4477 18 29V33C18 33.5523 18.4477 34 19 34C19.5523 34 20 33.5523 20 33V29Z" fill="white"/>
</svg>
