<svg width="41" height="41" viewBox="0 0 41 41" fill="none" xmlns="http://www.w3.org/2000/svg">
<path d="M21.8426 9.92021C22.0767 10.0172 22.2768 10.1814 22.4176 10.3922C22.5584 10.6029 22.6336 10.8506 22.6335 11.1041V17.9374C22.6335 18.2772 22.4985 18.6031 22.2583 18.8434C22.018 19.0837 21.6921 19.2187 21.3523 19.2187C21.0125 19.2187 20.6866 19.0837 20.4463 18.8434C20.206 18.6031 20.071 18.2772 20.071 17.9374V14.1962L19.6952 14.572C19.5779 14.6979 19.4364 14.7988 19.2793 14.8689C19.1221 14.9389 18.9524 14.9766 18.7804 14.9796C18.6084 14.9826 18.4375 14.951 18.278 14.8865C18.1184 14.8221 17.9735 14.7262 17.8518 14.6045C17.7302 14.4829 17.6343 14.3379 17.5698 14.1784C17.5054 14.0189 17.4737 13.848 17.4768 13.6759C17.4798 13.5039 17.5175 13.3342 17.5875 13.1771C17.6575 13.0199 17.7585 12.8785 17.8844 12.7612L20.4469 10.1987C20.6259 10.0195 20.8541 9.89739 21.1025 9.84782C21.3509 9.79826 21.6085 9.82345 21.8426 9.92021Z" fill="#9A7E4E"/>
<path fill-rule="evenodd" clip-rule="evenodd" d="M12.8084 2.74524C15.3507 2.3285 17.9232 2.1245 20.4993 2.13536C23.6222 2.13536 26.2035 2.4104 28.1903 2.74524L28.4209 2.78453C30.1463 3.07324 31.5813 3.31411 32.702 4.69444C33.4212 5.58107 33.6535 6.53944 33.7065 7.60715L34.547 7.88732C35.3379 8.1504 36.0332 8.38274 36.5816 8.63899C37.1761 8.91574 37.7211 9.27107 38.1379 9.85019C38.5547 10.4276 38.7204 11.058 38.7956 11.7089C38.8639 12.3119 38.8639 13.0414 38.8639 13.8784V14.1244C38.8639 14.8112 38.8639 15.4177 38.8127 15.925C38.758 16.4734 38.6367 17.0081 38.3344 17.524C38.0286 18.0417 37.6203 18.4072 37.1676 18.7216C36.749 19.012 36.2194 19.3075 35.6181 19.6407L31.1081 22.1468C30.1856 23.9593 28.9214 25.5754 27.1789 26.7422C25.6841 27.745 23.8955 28.3805 21.7806 28.5616V32.0312H24.2235C24.9147 32.0312 25.5845 32.2707 26.119 32.7089C26.6534 33.1472 27.0195 33.7571 27.155 34.4348L27.5291 36.302H30.7493C31.0892 36.302 31.4151 36.437 31.6553 36.6773C31.8956 36.9176 32.0306 37.2435 32.0306 37.5833C32.0306 37.9231 31.8956 38.249 31.6553 38.4893C31.4151 38.7295 31.0892 38.8645 30.7493 38.8645H10.2493C9.90954 38.8645 9.58365 38.7295 9.34337 38.4893C9.10309 38.249 8.9681 37.9231 8.9681 37.5833C8.9681 37.2435 9.10309 36.9176 9.34337 36.6773C9.58365 36.437 9.90954 36.302 10.2493 36.302H13.4696L13.8437 34.4348C13.9792 33.7571 14.3453 33.1472 14.8797 32.7089C15.4142 32.2707 16.084 32.0312 16.7752 32.0312H19.2181V28.5616C17.1032 28.3805 15.3146 27.745 13.8198 26.7439C12.079 25.5754 10.8131 23.9593 9.8906 22.1468L5.3806 19.6407C4.8499 19.3589 4.33284 19.0522 3.83114 18.7216C3.35866 18.4146 2.96063 18.006 2.66606 17.5257C2.38859 17.0347 2.22456 16.4877 2.18602 15.925C2.13477 15.4177 2.13477 14.8112 2.13477 14.1244V13.8767C2.13477 13.0431 2.13477 12.3119 2.2031 11.7089C2.27827 11.058 2.44227 10.4276 2.86081 9.85019C3.27764 9.27107 3.8226 8.91574 4.41539 8.63728C4.96718 8.38103 5.66077 8.1504 6.45172 7.88732L7.29222 7.60715C7.34518 6.53774 7.57752 5.58107 8.29672 4.69444C9.4191 3.3124 10.8524 3.07153 12.5795 2.78453L12.8084 2.74524ZM16.0833 36.302H24.9154L24.6421 34.9371C24.6227 34.8403 24.5704 34.7532 24.4941 34.6906C24.4178 34.628 24.3222 34.5938 24.2235 34.5937H16.7752C16.6765 34.5938 16.5809 34.628 16.5046 34.6906C16.4283 34.7532 16.376 34.8403 16.3566 34.9371L16.0833 36.302ZM7.3486 10.2892C7.4716 12.8859 7.76372 15.7559 8.49489 18.438L6.67381 17.4284C6.00927 17.0577 5.59243 16.8253 5.29177 16.6169C5.01502 16.4239 4.92447 16.3094 4.87493 16.224C4.82368 16.1386 4.76902 16.0053 4.73485 15.6705C4.69863 15.1372 4.68609 14.6025 4.69727 14.0681V13.9434C4.69727 13.0226 4.69897 12.44 4.74852 11.9993C4.79635 11.5927 4.87152 11.4407 4.93985 11.3484C5.00647 11.2544 5.12606 11.1349 5.49677 10.9623C5.89993 10.7744 6.45343 10.5882 7.32468 10.2961L7.3486 10.2892ZM32.5038 18.438L34.3249 17.4284C34.9894 17.0577 35.4063 16.8253 35.7069 16.6169C35.9837 16.4239 36.0742 16.3094 36.1238 16.224C36.175 16.1386 36.2297 16.0053 36.2639 15.6705C36.2997 15.3049 36.3014 14.8283 36.3014 14.0681V13.9434C36.3014 13.0226 36.2997 12.44 36.2502 11.9993C36.2023 11.5927 36.1272 11.4407 36.0588 11.3484C35.9922 11.2544 35.8726 11.1349 35.5019 10.9623C35.0988 10.7744 34.5453 10.5882 33.674 10.2961L33.6501 10.2892C33.5288 12.8859 33.2333 15.7559 32.5038 18.438ZM20.4993 4.69786C17.5268 4.69786 15.0891 4.95924 13.2355 5.27186C11.1736 5.62036 10.7413 5.75019 10.2869 6.31053C9.83935 6.86061 9.79664 7.38336 9.88718 9.69815C10.0409 13.5556 10.55 17.7205 12.1251 20.8877C12.9041 22.4492 13.9223 23.727 15.2479 24.6153C16.5633 25.4985 18.2631 26.052 20.4993 26.052C22.7373 26.052 24.4353 25.4985 25.7525 24.6153C27.0781 23.727 28.0946 22.4492 28.8719 20.886C30.4487 17.7205 30.9578 13.5573 31.1098 9.69644C31.2038 7.38336 31.1611 6.86061 30.7135 6.31053C30.2591 5.75019 29.8251 5.62036 27.7632 5.27186C25.3621 4.87902 22.9324 4.68702 20.4993 4.69786Z" fill="#9A7E4E"/>
</svg>
